HIERARCHY
ROOT Hips
{
	OFFSET 0.000000 0.000000 0.000000
	CHANNELS 6 Xposition Yposition Zposition Zrotation Yrotation Xrotation 
	JOINT LHipJoint
	{
		OFFSET 0.000000 0.000000 0.000000
		CHANNELS 3 Zrotation Yrotation Xrotation
		JOINT LeftUpLeg
		{
			OFFSET 1.363060 -1.794630 0.839290
			CHANNELS 3 Zrotation Yrotation Xrotation
			JOINT LeftLeg
			{
				OFFSET 2.448110 -6.726130 0.000000
				CHANNELS 3 Zrotation Yrotation Xrotation
				JOINT LeftFoot
				{
					OFFSET 2.562200 -7.039590 0.000000
					CHANNELS 3 Zrotation Yrotation Xrotation
					JOINT LeftToeBase
					{
						OFFSET 0.157640 -0.433110 2.322550
						CHANNELS 3 Zrotation Yrotation Xrotation
						End Site
						{
							OFFSET 0.000000 0.000000 0.000000
						}
					}
				}
			}
		}
	}
	JOINT RHipJoint
	{
		OFFSET 0.000000 0.000000 0.000000
		CHANNELS 3 Zrotation Yrotation Xrotation
		JOINT RightUpLeg
		{
			OFFSET -1.305520 -1.794630 0.839290
			CHANNELS 3 Zrotation Yrotation Xrotation
			JOINT RightLeg
			{
				OFFSET -2.542530 -6.985550 0.000000
				CHANNELS 3 Zrotation Yrotation Xrotation
				JOINT RightFoot
				{
					OFFSET -2.568260 -7.056230 0.000000
					CHANNELS 3 Zrotation Yrotation Xrotation
					JOINT RightToeBase
					{
						OFFSET -0.164730 -0.452590 2.363150
						CHANNELS 3 Zrotation Yrotation Xrotation
						End Site
						{
							OFFSET 0.000000 0.000000 0.000000
						}
					}
				}
			}
		}
	}
	JOINT LowerBack
	{
		OFFSET 0.000000 0.000000 0.000000
		CHANNELS 3 Zrotation Yrotation Xrotation
		JOINT Spine
		{
			OFFSET 0.028270 2.035590 -0.193380
			CHANNELS 3 Zrotation Yrotation Xrotation
			JOINT Spine1
			{
				OFFSET 0.056720 2.048850 -0.042750
				CHANNELS 3 Zrotation Yrotation Xrotation
				JOINT Neck
				{
					OFFSET 0.000000 0.000000 0.000000
					CHANNELS 3 Zrotation Yrotation Xrotation
					JOINT Neck1
					{
						OFFSET -0.054170 1.746240 0.172020
						CHANNELS 3 Zrotation Yrotation Xrotation
						JOINT Head
						{
							OFFSET 0.104070 1.761360 -0.123970
							CHANNELS 3 Zrotation Yrotation Xrotation
							End Site
							{
								OFFSET 0.000000 0.000000 0.000000
							}
						}
					}
				}
				JOINT LeftShoulder
				{
					OFFSET 0.000000 0.000000 0.000000
					CHANNELS 3 Zrotation Yrotation Xrotation
					JOINT LeftArm
					{
						OFFSET 3.362410 1.200890 -0.311210
						CHANNELS 3 Zrotation Yrotation Xrotation
						JOINT LeftForeArm
						{
							OFFSET 4.983000 -0.000000 -0.000000
							CHANNELS 3 Zrotation Yrotation Xrotation
							JOINT LeftHand
							{
								OFFSET 3.483560 -0.000000 -0.000000
								CHANNELS 3 Zrotation Yrotation Xrotation
								JOINT LeftFingerBase
								{
									OFFSET 0.000000 0.000000 0.000000
									CHANNELS 3 Zrotation Yrotation Xrotation
									JOINT LeftHandIndex1
									{
										OFFSET 0.715260 -0.000000 -0.000000
										CHANNELS 3 Zrotation Yrotation Xrotation
										End Site
										{
											OFFSET 0.000000 0.000000 0.000000
										}
									}
								}
								JOINT LThumb
								{
									OFFSET 0.000000 0.000000 0.000000
									CHANNELS 3 Zrotation Yrotation Xrotation
									End Site
									{
										OFFSET 0.000000 0.000000 0.000000
									}
								}
							}
						}
					}
				}
				JOINT RightShoulder
				{
					OFFSET 0.000000 0.000000 0.000000
					CHANNELS 3 Zrotation Yrotation Xrotation
					JOINT RightArm
					{
						OFFSET -3.136600 1.374050 -0.404650
						CHANNELS 3 Zrotation Yrotation Xrotation
						JOINT RightForeArm
						{
							OFFSET -5.241900 -0.000000 -0.000000
							CHANNELS 3 Zrotation Yrotation Xrotation
							JOINT RightHand
							{
								OFFSET -3.444170 -0.000000 -0.000000
								CHANNELS 3 Zrotation Yrotation Xrotation
								JOINT RightFingerBase
								{
									OFFSET 0.000000 0.000000 0.000000
									CHANNELS 3 Zrotation Yrotation Xrotation
									JOINT RightHandIndex1
									{
										OFFSET -0.622530 -0.000000 -0.000000
										CHANNELS 3 Zrotation Yrotation Xrotation
										End Site
										{
											OFFSET 0.000000 0.000000 0.000000
										}
									}
								}
								JOINT RThumb
								{
									OFFSET 0.000000 0.000000 0.000000
									CHANNELS 3 Zrotation Yrotation Xrotation
									End Site
									{
										OFFSET 0.000000 0.000000 0.000000
									}
								}
							}
						}
					}
				}
			}
		}
	}
}
MOTION
Frames: 6
Frame Time: 0.008333
-9.005559 18.067493 0.369969 -3.457021 17.631929 -1.324344 -3.352227 3.888349 4.185319 0.064416 -1.259039 -24.085173 1.121588 8.590350 23.912554 -7.263592 22.749409 -0.559916 0.348600 3.793400 10.496200 -0.338973 -5.505527 4.646111 25.565824 8.198125 -0.948337 -1.063449 -5.474263 22.560899 7.257896 -25.278662 -20.617973 -0.003200 -0.367300 1.009300 7.007005 5.095407 1.266360 -10.200797 6.491898 10.290495 -1.507914 3.360717 -6.647408 -2.353949 10.072130 -10.654200 7.066054 12.868186 37.233407 4.815000 6.948300 10.041600 -7.859964 -0.917877 -0.550289 -75.936652 7.212304 -14.735803 7.314140 -12.082871 -0.785034 -2.030861 -1.064549 18.169957 28.901527 21.126744 12.780800 -7.125000 0.000000 0.000000 1.665400 55.808900 0.441800 9.875201 1.417034 -1.468819 73.213624 -2.697801 30.400508 -18.001373 23.366693 -5.052086 2.287428 0.167157 9.059354 -35.269201 4.781722 -3.088000 7.125000 0.000000 0.000000 -8.133400 -24.901300 -3.991000 
-8.938381 18.058261 0.397665 -3.507903 18.182643 -1.267524 -3.375872 3.864806 4.169859 -0.128346 -1.199932 -24.164773 1.125131 8.624840 24.061128 -7.179734 22.515794 -0.778281 0.397600 4.048400 11.212800 -0.350824 -5.498424 4.636089 25.543018 8.242356 -0.859839 -1.071234 -5.500725 22.662271 7.304919 -25.616224 -21.219655 -0.002600 -0.332100 0.912600 6.995439 5.044476 1.311249 -10.548011 6.414811 10.083038 -1.515880 3.313109 -6.716886 -2.203397 10.093584 -10.413558 7.132806 12.853407 37.179709 4.797800 6.963200 9.989000 -7.829896 -0.886908 -0.536820 -75.760780 7.272203 -15.369945 7.182604 -11.879326 -0.754983 -1.994664 -1.035798 18.929203 28.090889 20.863866 12.224700 -7.125000 0.000000 0.000000 0.786800 55.322900 0.199400 9.888285 1.371276 -1.493925 73.445314 -3.097648 30.235715 -18.143256 23.568688 -5.133982 2.295679 0.180664 8.979332 -35.520525 4.826796 -3.137400 7.125000 0.000000 0.000000 -8.321100 -24.850500 -4.094900 
-8.866195 18.047850 0.427031 -3.526035 18.756816 -1.226746 -3.415078 3.853330 4.174475 -0.362319 -1.189793 -24.160191 1.112067 8.621353 24.112526 -7.088755 22.267434 -0.842437 0.388700 4.003300 11.085900 -0.346118 -5.499036 4.642670 25.425036 8.170858 -0.765433 -1.069343 -5.512495 22.709989 7.314453 -25.826150 -21.729593 -0.001800 -0.272900 0.749800 6.935752 5.017561 1.257233 -10.729632 6.374340 10.118508 -1.510268 3.286643 -6.681752 -2.398834 10.064339 -10.535441 7.292700 12.799360 37.178982 4.873900 6.941000 9.989000 -7.807764 -0.888991 -0.520824 -75.720852 7.000379 -16.337785 7.021394 -11.610957 -0.719306 -1.975528 -0.960706 19.787463 27.677178 20.138192 11.634200 -7.125000 0.000000 0.000000 0.496900 54.382500 0.114600 9.891319 1.352766 -1.510865 73.504101 -3.288853 30.124539 -18.219989 23.680020 -5.174889 2.298230 0.220863 8.622718 -35.534572 4.660246 -2.989700 7.125000 0.000000 0.000000 -8.355900 -25.091200 -4.065100 
-8.792928 18.035279 0.457379 -3.594587 19.203993 -1.191778 -3.442213 3.836509 4.147761 -0.578036 -1.117045 -24.298242 1.139924 8.645599 24.169430 -7.177879 22.566057 -0.463187 0.236100 3.127100 8.632900 -0.336400 -5.504031 4.664391 25.350575 8.154833 -0.591279 -1.046011 -5.485834 22.653413 7.267959 -25.891761 -22.228804 -0.002600 -0.332400 0.913300 6.837206 5.055237 1.119554 -10.760577 6.412406 10.224252 -1.479563 3.307165 -6.561070 -2.586503 9.993193 -10.672321 7.261979 12.752173 37.115700 4.889500 6.895400 9.991300 -7.811730 -0.916494 -0.501909 -75.759865 6.510094 -18.028890 6.807841 -11.252778 -0.674513 -1.994524 -0.870442 21.513766 27.570300 19.891502 11.447000 -7.125000 0.000000 0.000000 0.446900 54.054300 0.099500 9.892963 1.376381 -1.510152 73.364891 -3.210592 30.040561 -18.185451 23.635466 -5.147755 2.291624 0.274230 8.464518 -35.272660 4.126612 -2.524600 7.125000 0.000000 0.000000 -8.221900 -25.819100 -3.857800 
-8.719268 18.031743 0.489593 -3.755040 19.611873 -1.178343 -3.450203 3.824738 4.129148 -0.674129 -1.109273 -24.384910 1.158317 8.673170 24.249386 -7.172533 22.582414 -0.281224 0.161100 2.586300 7.129000 -0.332725 -5.509200 4.680336 25.392123 8.162810 -0.327145 -1.005491 -5.419263 22.482931 7.277453 -26.105524 -22.731638 -0.001800 -0.274800 0.755000 6.863659 5.110132 0.988827 -10.822731 6.477994 10.284483 -1.505680 3.337412 -6.442203 -2.618312 9.912348 -10.679477 7.124203 12.697570 36.988810 4.842000 6.844300 9.972300 -7.813938 -0.932496 -0.488982 -75.711559 6.150109 -19.222264 6.643697 -10.982453 -0.642097 -2.013945 -0.817441 22.892209 27.477529 20.002836 11.456500 -7.125000 0.000000 0.000000 0.325700 54.149600 0.073300 9.895191 1.389855 -1.516159 73.342028 -3.229162 29.747327 -18.181373 23.629013 -5.137741 2.280698 0.311634 8.874371 -35.063636 3.503176 -1.999100 7.125000 0.000000 0.000000 -8.128100 -26.658100 -3.651700 
-8.642858 18.033904 0.522199 -3.874906 20.055622 -1.151920 -3.471282 3.808788 4.101522 -0.746387 -1.279610 -24.428074 1.176209 8.700464 24.334074 -7.121144 22.491320 0.056060 0.144100 2.446700 6.742000 -0.326066 -5.514560 4.695266 25.369314 8.183753 -0.031351 -0.950289 -5.327524 22.226236 7.318297 -26.400239 -23.238162 -0.001100 -0.210900 0.579600 6.897364 5.129064 0.932571 -10.967718 6.498382 10.273726 -1.534362 3.342860 -6.401207 -2.648814 9.868536 -10.757636 7.082368 12.665512 37.021536 4.842100 6.818800 10.000900 -7.801183 -0.924632 -0.483129 -75.613931 6.054271 -19.456440 6.596891 -10.905543 -0.633687 -1.976178 -0.800146 23.222731 26.845544 19.683074 10.989500 -7.125000 0.000000 0.000000 -0.307900 53.648000 -0.065500 9.901995 1.374576 -1.527674 73.420158 -3.409080 29.485815 -18.185930 23.644032 -5.138326 2.281325 0.310049 9.153191 -35.093035 3.396636 -1.913600 7.125000 0.000000 0.000000 -8.161800 -26.799900 -3.639700 
